# xmcd CD database file
#
# Track frame offsets:
#	150
#	20150
#	42174
#	64096
#	85328
#	104940
#	127743
#	151770
#	171395
#	193113
#	213762
#	234345
#
# Disc length: 3459 seconds
#
# Revision: 25
# Processed by: cddbd v1.5.2PL0 Copyright (c) Steve Scherf et al.
# Submitted via: CDex 1.70beta3
#
DISCID=a00d810c
DTITLE=FUNKY MONKEY BABYS - ファンキーモンキーベイビーズ BEST（Disc.1）
DYEAR=2010
DGENRE=JPop
TTITLE0=希望の唄
TTITLE1=ヒーロー
TTITLE2=Lovin' Life
TTITLE3=告白
TTITLE4=ALWAYS
TTITLE5=ちっぽけな勇気
TTITLE6=桜
TTITLE7=涙
TTITLE8=もう君がいない
TTITLE9=恋の片道切符
TTITLE10=そのまんま東へ
TTITLE11=旅立ち
EXTD=YEAR: 2010
EXTT0=
EXTT1=
EXTT2=
EXTT3=
EXTT4=
EXTT5=
EXTT6=
EXTT7=
EXTT8=
EXTT9=
EXTT10=
EXTT11=
PLAYORDER=
